# xmcd
#
# Track frame offsets:
#	150
#	11372
#	21577
#	32752
#	42855
#	56455
#	68575
#	79820
#	91090
#	101717
#	113545
#	125052
#	135850
#	146375
#	158885
#	168642
#	179692
#	189542
#	200877
#	213135
#	223470
#	233310
#	242872
#	255415
#	268280
#
# Disc length: 3712 seconds
#
# Revision: 1
# Processed by: cddbd v1.5.2PL0 Copyright (c) Steve Scherf et al.
# Submitted via: audiograbber 1.83.01
#
DISCID=630e7e19
DTITLE=Various Artist - Whats Your Name - A Doo Wop Dedication To The Girls Of The Fif
DTITLE=ties
DYEAR=1900
DGENRE=
TTITLE0=Starlites - Valarie
TTITLE1=Five Satins - Toni My Love
TTITLE2=Travelers - Lenora
TTITLE3=Academics - Darla My Darling
TTITLE4=Earls - Darlene
TTITLE5=Rainbows - Shirley
TTITLE6=Bop Tones - Betty Jean
TTITLE7=Sputniks - Hey Maryann
TTITLE8=Universals - Dear Ruth
TTITLE9=Love Notes - Sweet Lulu
TTITLE10=Parakeets - Yvonne
TTITLE11=Little Freddie and Gents - Betty
TTITLE12=Emersons - Joanie Joanie
TTITLE13=Four Buddies - Delores
TTITLE14=Dreamlovers - Annabelle Lee
TTITLE15=Bob E Lee and Aquatones - Anna Mae
TTITLE16=Five Jades - Rose Marie
TTITLE17=Premiers - Oh Theresa
TTITLE18=Charts - Deserie
TTITLE19=Chandelliers - Dolly
TTITLE20=Concords - Marlene
TTITLE21=Youngones - Maryann
TTITLE22=Thrillers - Lizabeth
TTITLE23=Mellows - Sweet Lorraine
TTITLE24=Rainbows - If You See Mary Lee
EXTD=
EXTT0=
EXTT1=
EXTT2=
EXTT3=
EXTT4=
EXTT5=
EXTT6=
EXTT7=
EXTT8=
EXTT9=
EXTT10=
EXTT11=
EXTT12=
EXTT13=
EXTT14=
EXTT15=
EXTT16=
EXTT17=
EXTT18=
EXTT19=
EXTT20=
EXTT21=
EXTT22=
EXTT23=
EXTT24=
PLAYORDER=
